<?xml version="1.0" encoding="UTF-8" standalone="no"?>
<!DOCTYPE svg PUBLIC "-//W3C//DTD SVG 1.1//EN" "http://www.w3.org/Graphics/SVG/1.1/DTD/svg11.dtd">
<svg xmlns="http://www.w3.org/2000/svg" version="1.1" viewBox="0 0 1448 1448">
<path fill="#ffe131" d="
  M 413.33 371.99
  Q 409.82 368.63 406.64 364.94
  C 406.45 364.73 406.46 364.41 406.66 364.21
  Q 426.88 343.46 463.44 306.94
  Q 591.05 179.42 718.44 51.68
  Q 734.16 35.91 753.03 24.08
  Q 781.09 6.48 814.09 3.41
  Q 815.44 3.29 817.69 2.34
  Q 820.27 1.25 824.00 1.25
  Q 829.75 1.25 835.51 1.25
  Q 841.67 1.25 846.94 2.14
  Q 861.23 4.56 876.56 8.94
  Q 900.82 15.86 920.05 30.86
  Q 925.59 35.18 934.74 44.40
  Q 970.12 80.04 1004.71 117.12
  C 1004.99 117.42 1004.98 117.89 1004.69 118.18
  L 867.45 255.18
  C 867.20 255.42 867.20 255.82 867.45 256.07
  L 1188.87 577.49
  C 1189.18 577.80 1189.70 577.80 1190.01 577.49
  L 1329.89 436.86
  C 1330.17 436.58 1330.62 436.59 1330.89 436.87
  Q 1349.71 456.66 1368.63 475.63
  Q 1391.65 498.72 1412.19 524.00
  Q 1420.17 533.82 1424.22 539.96
  Q 1444.46 570.69 1446.50 608.00
  Q 1447.58 627.74 1443.06 647.91
  Q 1433.59 690.18 1404.69 720.69
  Q 1388.47 737.80 1357.85 768.35
  Q 1229.13 896.75 1100.40 1025.15
  Q 1092.42 1033.10 1085.36 1042.03
  C 1085.08 1042.39 1084.54 1042.42 1084.22 1042.10
  L 904.41 862.04
  C 904.21 861.84 904.19 861.52 904.36 861.28
  Q 919.49 840.74 929.44 819.69
  Q 957.05 761.28 949.21 695.97
  Q 939.64 616.21 882.23 560.77
  Q 834.81 514.99 770.50 501.75
  Q 734.55 494.35 697.72 498.69
  Q 687.82 499.85 677.99 501.97
  Q 627.73 512.80 586.41 543.94
  C 586.17 544.12 585.85 544.10 585.64 543.90
  Q 502.70 461.16 419.90 378.28
  Q 419.86 378.23 413.33 371.99
  Z"
/>
<rect fill="#ffe131" x="-72.80" y="-175.05" transform="translate(1115.94,332.12) rotate(-45.0)" width="145.60" height="350.10" rx="0.45"/>
<path fill="#ffe131" d="
  M 200.67 924.17
  Q 159.77 965.39 118.64 1006.11
  C 118.41 1006.34 118.03 1006.35 117.79 1006.12
  Q 80.72 971.23 45.26 935.88
  Q 36.06 926.71 31.71 921.20
  Q 14.60 899.53 7.64 872.28
  Q 5.87 865.35 2.25 847.00
  Q 1.08 841.07 1.12 838.25
  Q 1.21 832.23 1.24 826.20
  Q 1.26 820.31 2.27 814.88
  Q 4.95 800.35 7.06 792.31
  Q 15.65 759.62 37.07 734.18
  Q 41.06 729.45 50.81 719.67
  Q 207.13 563.06 363.79 406.71
  C 364.29 406.21 365.09 406.21 365.58 406.71
  L 544.15 585.15
  C 544.35 585.35 544.38 585.68 544.21 585.92
  Q 533.69 600.87 529.56 607.81
  Q 486.49 680.31 500.52 764.34
  Q 509.08 815.64 539.85 857.41
  Q 559.71 884.36 586.03 904.73
  Q 593.91 910.83 602.43 916.15
  Q 654.63 948.70 716.50 950.85
  Q 726.49 951.20 736.49 950.53
  Q 805.86 945.93 861.98 903.72
  C 862.26 903.51 862.66 903.53 862.91 903.78
  L 1041.84 1082.83
  C 1042.03 1083.03 1042.03 1083.35 1041.83 1083.54
  Q 892.86 1232.83 743.83 1382.04
  Q 743.77 1382.10 735.86 1390.15
  Q 722.09 1404.19 708.44 1414.69
  Q 691.51 1427.70 672.25 1435.50
  Q 653.96 1442.90 633.85 1444.45
  Q 632.24 1444.58 630.92 1445.23
  Q 630.00 1445.69 629.10 1446.18
  Q 628.17 1446.69 627.16 1446.70
  Q 620.19 1446.76 613.21 1446.76
  Q 605.20 1446.77 599.32 1445.99
  Q 567.75 1441.85 541.56 1425.44
  Q 515.52 1409.12 492.25 1385.00
  Q 465.56 1357.32 438.36 1330.36
  C 438.23 1330.23 438.23 1330.02 438.36 1329.89
  L 578.23 1191.90
  C 578.52 1191.61 578.53 1191.15 578.24 1190.86
  L 256.41 868.92
  C 256.22 868.72 255.90 868.72 255.71 868.92
  Q 228.14 896.49 200.67 924.17
  Z"
/>
<path fill="#ffe131" d="
  M 865.02 825.92
  C 864.84 826.13 864.52 826.15 864.33 825.95
  L 621.81 583.44
  C 621.46 583.09 621.50 582.50 621.90 582.19
  Q 662.09 551.51 712.75 549.21
  Q 776.18 546.33 827.10 581.44
  Q 835.54 587.26 842.77 593.82
  Q 874.08 622.25 888.52 662.70
  Q 897.36 687.47 898.84 713.75
  Q 900.88 750.07 888.74 784.25
  Q 880.66 806.98 865.02 825.92
  Z"
/>
<path fill="#ffe131" d="
  M 819.85 859.08
  Q 822.61 861.76 825.17 864.63
  C 825.35 864.83 825.33 865.15 825.13 865.33
  Q 814.71 874.59 802.94 880.69
  Q 772.15 896.62 737.01 898.89
  Q 693.16 901.71 653.56 885.19
  Q 623.07 872.47 599.45 848.94
  Q 592.43 841.95 586.21 833.98
  Q 555.81 795.04 549.96 745.00
  Q 547.01 719.75 550.98 694.65
  Q 556.89 657.27 579.56 626.06
  Q 581.23 623.77 582.54 622.63
  C 582.76 622.44 583.09 622.46 583.29 622.66
  Q 699.36 738.15 814.84 854.21
  Q 814.93 854.29 819.85 859.08
  Z"
/>
<rect fill="#ffe131" x="-73.50" y="-174.39" transform="translate(331.46,1115.97) rotate(-45.0)" width="147.00" height="348.78" rx="0.26"/>
</svg>
