<?xml version="1.0" encoding="UTF-8" standalone="no"?>
<!DOCTYPE svg PUBLIC "-//W3C//DTD SVG 1.1//EN" "http://www.w3.org/Graphics/SVG/1.1/DTD/svg11.dtd">
<svg xmlns="http://www.w3.org/2000/svg" version="1.1" viewBox="0 0 1448 1448">
<path fill="#ffffff" d="
  M 963.94 74.06
  Q 984.58 95.58 1004.91 117.38
  C 1005.10 117.59 1005.10 117.90 1004.90 118.10
  L 867.46 255.16
  C 867.17 255.45 867.17 255.92 867.46 256.21
  L 1188.83 577.46
  C 1189.17 577.79 1189.71 577.79 1190.04 577.46
  L 1329.78 436.98
  C 1330.08 436.67 1330.56 436.67 1330.86 436.98
  Q 1347.66 454.34 1364.39 471.36
  Q 1379.53 486.74 1394.08 502.67
  Q 1405.53 515.19 1415.91 528.59
  Q 1423.12 537.89 1427.35 544.96
  Q 1446.54 576.99 1446.75 614.00
  Q 1447.04 665.49 1415.69 707.69
  Q 1408.84 716.91 1394.88 730.88
  Q 1248.06 877.81 1101.05 1024.55
  Q 1092.96 1032.63 1085.23 1042.14
  C 1085.03 1042.39 1084.66 1042.41 1084.43 1042.18
  L 904.74 862.62
  C 904.23 862.11 904.17 861.30 904.60 860.72
  Q 966.35 777.94 945.50 674.25
  Q 934.51 619.57 896.75 576.00
  Q 849.25 521.19 779.06 503.69
  Q 755.33 497.77 730.25 497.07
  Q 720.36 496.80 710.26 497.51
  Q 641.51 502.40 586.34 544.07
  C 586.13 544.23 585.83 544.21 585.65 544.02
  L 406.94 365.44
  C 406.45 364.95 406.45 364.17 406.94 363.69
  Q 563.54 206.79 719.31 50.81
  Q 730.02 40.09 743.36 30.32
  Q 775.48 6.79 815.31 3.31
  Q 816.01 3.25 818.52 2.07
  Q 820.11 1.31 821.78 1.27
  Q 838.27 0.90 843.75 1.50
  Q 847.62 1.92 865.98 6.10
  Q 884.97 10.41 901.44 18.81
  Q 918.06 27.29 931.71 41.04
  Q 947.97 57.41 963.94 74.06
  Z"
/>
<rect fill="#ffffff" x="-175.05" y="-72.78" transform="translate(1116.00,332.07) rotate(45.0)" width="350.10" height="145.56" rx="0.86"/>
<path fill="#ffffff" d="
  M 520.16 825.44
  Q 540.71 865.79 575.31 895.94
  Q 602.22 919.38 634.76 932.99
  Q 683.78 953.49 736.53 950.52
  Q 746.46 949.96 756.41 948.42
  Q 814.65 939.45 862.15 903.75
  C 862.39 903.57 862.72 903.59 862.93 903.80
  L 1041.68 1082.55
  C 1042.00 1082.87 1042.00 1083.38 1041.68 1083.70
  Q 886.54 1239.35 730.77 1394.87
  Q 721.77 1403.85 716.15 1408.51
  Q 705.15 1417.65 692.91 1425.14
  Q 665.69 1441.82 633.86 1444.44
  Q 632.27 1444.58 630.93 1445.25
  Q 630.02 1445.72 629.11 1446.20
  Q 628.18 1446.69 627.15 1446.70
  Q 619.93 1446.76 612.71 1446.76
  Q 604.50 1446.77 598.33 1445.87
  Q 559.58 1440.23 528.08 1416.45
  Q 510.77 1403.39 495.46 1388.03
  Q 480.99 1373.51 466.76 1358.74
  Q 452.84 1344.28 438.41 1330.53
  C 438.25 1330.38 438.25 1330.12 438.41 1329.96
  L 578.09 1192.05
  C 578.49 1191.65 578.50 1190.99 578.10 1190.59
  L 256.74 869.36
  C 256.40 869.02 255.85 869.02 255.51 869.36
  L 118.79 1006.08
  C 118.60 1006.28 118.28 1006.29 118.08 1006.10
  Q 84.81 975.12 52.53 943.12
  Q 39.02 929.73 38.35 929.01
  Q 23.91 913.45 15.30 893.73
  Q 7.85 876.65 4.35 858.33
  Q 3.52 853.97 2.64 849.61
  Q 1.71 844.98 1.46 840.82
  Q 0.68 827.81 1.25 821.25
  Q 1.57 817.55 3.57 808.05
  Q 5.65 798.18 6.43 794.94
  Q 14.21 762.66 34.82 736.92
  Q 39.23 731.40 48.37 722.23
  Q 206.17 563.85 364.50 406.12
  C 364.64 405.99 364.86 405.99 365.00 406.12
  L 544.14 585.14
  C 544.46 585.46 544.49 585.95 544.22 586.31
  Q 518.52 620.22 506.48 660.57
  Q 493.72 703.33 498.50 748.50
  Q 501.74 779.10 512.14 807.15
  Q 515.61 816.49 520.16 825.44
  Z"
/>
<path fill="#ffffff" d="
  M 827.85 789.26
  Q 724.93 686.73 621.98 583.60
  C 621.54 583.16 621.58 582.43 622.08 582.05
  Q 658.95 553.80 705.50 549.70
  Q 742.72 546.42 777.96 557.35
  Q 787.44 560.29 796.68 564.36
  Q 858.38 591.56 884.97 653.53
  Q 888.96 662.83 891.73 672.34
  Q 901.49 705.95 898.30 741.25
  Q 896.31 763.28 888.85 784.08
  Q 880.83 806.44 865.28 825.75
  C 865.01 826.09 864.50 826.11 864.20 825.81
  Q 852.75 814.52 841.92 803.48
  Q 833.28 794.67 827.85 789.26
  Z"
/>
<path fill="#ffffff" d="
  M 617.44 864.31
  Q 590.65 844.22 573.87 815.70
  Q 546.59 769.35 548.94 715.25
  Q 550.45 680.57 565.44 649.37
  Q 572.38 634.92 582.40 622.48
  C 582.63 622.20 583.05 622.17 583.30 622.43
  L 825.16 864.40
  C 825.50 864.75 825.47 865.31 825.10 865.62
  Q 813.48 875.25 800.50 881.94
  Q 792.33 886.15 782.07 889.66
  Q 734.89 905.74 685.21 895.18
  Q 648.06 887.28 617.44 864.31
  Z"
/>
<rect fill="#ffffff" x="-73.55" y="-174.39" transform="translate(331.42,1115.99) rotate(-45.0)" width="147.10" height="348.78" rx="0.36"/>
</svg>
