<?xml version="1.0" encoding="UTF-8" standalone="no"?>
<!DOCTYPE svg PUBLIC "-//W3C//DTD SVG 1.1//EN" "http://www.w3.org/Graphics/SVG/1.1/DTD/svg11.dtd">
<svg xmlns="http://www.w3.org/2000/svg" version="1.1" viewBox="0 0 1448 1448">
<g stroke-width="2.0" fill="none" stroke-linecap="butt">
<path stroke="#007345" vector-effect="non-scaling-stroke" d="
  M 1115.46 1010.46
  Q 1240.92 885.05 1366.40 759.65
  Q 1379.33 746.72 1402.06 723.31
  Q 1438.69 685.59 1445.50 633.75
  Q 1451.17 590.57 1431.31 552.05
  Q 1427.26 544.21 1420.64 535.16
  Q 1404.64 513.29 1384.06 491.94
  Q 1357.49 464.37 1330.85 436.86
  C 1330.66 436.66 1330.34 436.66 1330.15 436.85
  L 1189.79 577.71
  C 1189.60 577.90 1189.28 577.90 1189.09 577.71
  Q 1074.67 463.66 960.99 349.64
  Q 954.47 343.09 946.83 335.52
  Q 906.91 295.93 867.41 255.92
  C 867.22 255.72 867.22 255.40 867.41 255.21
  L 1004.56 118.32
  C 1004.94 117.94 1004.95 117.33 1004.58 116.95
  Q 979.91 90.72 954.75 64.50
  Q 933.99 42.86 923.31 33.44
  Q 906.85 18.91 882.80 10.98
  Q 865.62 5.32 847.81 2.30
  Q 841.49 1.23 834.11 1.24
  Q 827.21 1.24 820.31 1.31
  C 819.99 1.31 819.67 1.40 819.39 1.58
  Q 816.78 3.16 815.06 3.31
  Q 778.54 6.55 748.27 27.00
  Q 732.45 37.69 718.97 51.21
  Q 591.99 178.49 464.81 305.56
  Q 426.41 343.94 406.60 364.39
  C 406.41 364.59 406.41 364.91 406.60 365.10
  L 585.14 543.51
  C 585.57 543.95 586.27 544.00 586.76 543.63
  Q 643.31 501.36 713.50 497.37
  Q 723.55 496.80 733.49 497.20
  Q 775.27 498.89 812.44 514.56
  Q 870.25 538.94 908.28 590.71
  Q 937.02 629.82 946.00 676.75
  Q 965.41 778.15 904.55 860.76
  C 904.18 861.27 904.23 861.98 904.68 862.43
  L 1084.32 1042.20
  C 1084.50 1042.37 1084.79 1042.37 1084.95 1042.18
  Q 1096.51 1028.80 1109.28 1016.53
  Q 1112.40 1013.52 1115.46 1010.46"
/>
<path stroke="#007345" vector-effect="non-scaling-stroke" d="
  M 941.38 260.25
  Q 967.60 286.65 993.38 312.37
  Q 1090.74 409.53 1187.89 506.89
  C 1188.09 507.09 1188.41 507.09 1188.60 506.90
  L 1290.74 404.88
  C 1290.99 404.64 1290.99 404.24 1290.74 403.99
  L 1044.48 157.60
  C 1044.11 157.23 1043.52 157.23 1043.15 157.60
  L 941.38 258.99
  C 941.03 259.34 941.03 259.90 941.38 260.25"
/>
<path stroke="#007345" vector-effect="non-scaling-stroke" d="
  M 206.97 917.97
  Q 231.05 893.81 255.63 868.99
  C 255.83 868.78 256.15 868.78 256.35 868.99
  L 578.13 1190.76
  C 578.48 1191.10 578.48 1191.66 578.13 1192.00
  Q 524.29 1245.04 471.06 1297.56
  Q 449.92 1318.42 438.67 1329.95
  C 438.47 1330.15 438.47 1330.47 438.67 1330.67
  Q 465.51 1357.16 491.74 1384.26
  Q 511.44 1404.62 532.94 1419.81
  Q 562.44 1440.66 598.48 1445.87
  Q 604.72 1446.77 613.05 1446.76
  Q 620.37 1446.76 627.68 1446.69
  C 628.01 1446.69 628.33 1446.59 628.61 1446.41
  Q 631.33 1444.64 633.00 1444.50
  Q 670.29 1441.46 700.86 1420.13
  Q 717.13 1408.79 729.06 1396.81
  Q 868.38 1257.00 1008.15 1117.65
  Q 1024.73 1101.11 1041.64 1083.58
  C 1041.93 1083.28 1041.93 1082.80 1041.63 1082.51
  L 862.92 903.80
  C 862.71 903.59 862.39 903.57 862.15 903.74
  Q 826.74 930.32 784.21 942.35
  Q 749.87 952.07 715.25 950.75
  Q 653.61 948.41 601.85 915.76
  Q 593.37 910.41 585.47 904.27
  Q 555.45 880.94 534.09 849.17
  Q 512.97 817.77 503.94 780.06
  Q 492.69 733.10 500.26 686.39
  Q 501.86 676.51 504.48 666.87
  Q 516.38 622.96 544.31 586.23
  C 544.54 585.93 544.51 585.51 544.25 585.25
  L 365.33 406.45
  C 365.12 406.24 364.79 406.22 364.55 406.39
  Q 361.37 408.71 358.79 411.29
  Q 203.25 566.93 47.87 722.73
  Q 38.86 731.77 34.36 737.46
  Q 11.93 765.81 4.77 801.90
  Q 3.48 808.41 2.27 814.94
  Q 1.26 820.34 1.24 826.17
  Q 1.21 832.46 1.11 838.75
  Q 1.07 840.99 1.75 844.50
  Q 4.47 858.56 5.37 863.03
  Q 10.82 889.84 25.46 912.56
  Q 29.65 919.06 34.79 924.86
  Q 39.36 930.02 45.44 936.06
  Q 80.62 971.02 117.58 1005.90
  C 117.97 1006.28 118.60 1006.27 118.99 1005.88
  Q 163.41 961.66 206.97 917.97"
/>
<path stroke="#007345" vector-effect="non-scaling-stroke" d="
  M 835.67 588.00
  Q 799.13 558.88 750.56 551.19
  Q 705.67 544.08 663.08 559.46
  Q 640.69 567.55 621.84 582.27
  C 621.48 582.55 621.45 583.07 621.77 583.39
  L 863.82 825.45
  C 864.34 825.97 865.20 825.92 865.65 825.34
  Q 886.58 798.70 894.05 766.55
  Q 896.21 757.29 897.56 746.87
  Q 901.42 717.14 895.25 687.00
  Q 885.03 637.05 850.47 601.42
  Q 843.50 594.23 835.67 588.00"
/>
<path stroke="#007345" vector-effect="non-scaling-stroke" d="
  M 812.80 852.17
  Q 697.89 737.22 583.16 622.53
  C 582.92 622.30 582.54 622.32 582.34 622.58
  Q 569.10 639.15 561.44 658.36
  Q 545.23 699.02 549.74 742.75
  Q 553.53 779.38 570.56 810.19
  Q 600.73 864.73 658.58 887.13
  Q 667.96 890.76 677.62 893.25
  Q 711.92 902.11 747.50 897.71
  Q 771.30 894.77 793.29 885.26
  Q 810.39 877.87 825.01 865.67
  C 825.34 865.39 825.38 864.89 825.09 864.56
  Q 821.76 860.74 818.45 857.58
  Q 812.83 852.21 812.80 852.17"
/>
<path stroke="#007345" vector-effect="non-scaling-stroke" d="
  M 260.6657 941.2651
  C 260.35 940.95 259.85 940.95 259.5343 941.2651
  L 156.7351 1044.0643
  C 156.42 1044.38 156.42 1044.88 156.7351 1045.1957
  L 402.2143 1290.6749
  C 402.53 1290.99 403.03 1290.99 403.3457 1290.6749
  L 506.1449 1187.8757
  C 506.46 1187.56 506.46 1187.06 506.1449 1186.7443
  L 260.6657 941.2651"
/>
</g>
<path fill="#000200" d="
  M 0.00 0.00
  Q 724.00 0.00 1448.00 0.00
  Q 1448.00 724.00 1448.00 1448.00
  Q 724.00 1448.00 0.00 1448.00
  Q 0.00 724.00 0.00 0.00
  Z
  M 1115.46 1010.46
  Q 1240.92 885.05 1366.40 759.65
  Q 1379.33 746.72 1402.06 723.31
  Q 1438.69 685.59 1445.50 633.75
  Q 1451.17 590.57 1431.31 552.05
  Q 1427.26 544.21 1420.64 535.16
  Q 1404.64 513.29 1384.06 491.94
  Q 1357.49 464.37 1330.85 436.86
  C 1330.66 436.66 1330.34 436.66 1330.15 436.85
  L 1189.79 577.71
  C 1189.60 577.90 1189.28 577.90 1189.09 577.71
  Q 1074.67 463.66 960.99 349.64
  Q 954.47 343.09 946.83 335.52
  Q 906.91 295.93 867.41 255.92
  C 867.22 255.72 867.22 255.40 867.41 255.21
  L 1004.56 118.32
  C 1004.94 117.94 1004.95 117.33 1004.58 116.95
  Q 979.91 90.72 954.75 64.50
  Q 933.99 42.86 923.31 33.44
  Q 906.85 18.91 882.80 10.98
  Q 865.62 5.32 847.81 2.30
  Q 841.49 1.23 834.11 1.24
  Q 827.21 1.24 820.31 1.31
  C 819.99 1.31 819.67 1.40 819.39 1.58
  Q 816.78 3.16 815.06 3.31
  Q 778.54 6.55 748.27 27.00
  Q 732.45 37.69 718.97 51.21
  Q 591.99 178.49 464.81 305.56
  Q 426.41 343.94 406.60 364.39
  C 406.41 364.59 406.41 364.91 406.60 365.10
  L 585.14 543.51
  C 585.57 543.95 586.27 544.00 586.76 543.63
  Q 643.31 501.36 713.50 497.37
  Q 723.55 496.80 733.49 497.20
  Q 775.27 498.89 812.44 514.56
  Q 870.25 538.94 908.28 590.71
  Q 937.02 629.82 946.00 676.75
  Q 965.41 778.15 904.55 860.76
  C 904.18 861.27 904.23 861.98 904.68 862.43
  L 1084.32 1042.20
  C 1084.50 1042.37 1084.79 1042.37 1084.95 1042.18
  Q 1096.51 1028.80 1109.28 1016.53
  Q 1112.40 1013.52 1115.46 1010.46
  Z
  M 941.38 260.25
  Q 967.60 286.65 993.38 312.37
  Q 1090.74 409.53 1187.89 506.89
  C 1188.09 507.09 1188.41 507.09 1188.60 506.90
  L 1290.74 404.88
  C 1290.99 404.64 1290.99 404.24 1290.74 403.99
  L 1044.48 157.60
  C 1044.11 157.23 1043.52 157.23 1043.15 157.60
  L 941.38 258.99
  C 941.03 259.34 941.03 259.90 941.38 260.25
  Z
  M 206.97 917.97
  Q 231.05 893.81 255.63 868.99
  C 255.83 868.78 256.15 868.78 256.35 868.99
  L 578.13 1190.76
  C 578.48 1191.10 578.48 1191.66 578.13 1192.00
  Q 524.29 1245.04 471.06 1297.56
  Q 449.92 1318.42 438.67 1329.95
  C 438.47 1330.15 438.47 1330.47 438.67 1330.67
  Q 465.51 1357.16 491.74 1384.26
  Q 511.44 1404.62 532.94 1419.81
  Q 562.44 1440.66 598.48 1445.87
  Q 604.72 1446.77 613.05 1446.76
  Q 620.37 1446.76 627.68 1446.69
  C 628.01 1446.69 628.33 1446.59 628.61 1446.41
  Q 631.33 1444.64 633.00 1444.50
  Q 670.29 1441.46 700.86 1420.13
  Q 717.13 1408.79 729.06 1396.81
  Q 868.38 1257.00 1008.15 1117.65
  Q 1024.73 1101.11 1041.64 1083.58
  C 1041.93 1083.28 1041.93 1082.80 1041.63 1082.51
  L 862.92 903.80
  C 862.71 903.59 862.39 903.57 862.15 903.74
  Q 826.74 930.32 784.21 942.35
  Q 749.87 952.07 715.25 950.75
  Q 653.61 948.41 601.85 915.76
  Q 593.37 910.41 585.47 904.27
  Q 555.45 880.94 534.09 849.17
  Q 512.97 817.77 503.94 780.06
  Q 492.69 733.10 500.26 686.39
  Q 501.86 676.51 504.48 666.87
  Q 516.38 622.96 544.31 586.23
  C 544.54 585.93 544.51 585.51 544.25 585.25
  L 365.33 406.45
  C 365.12 406.24 364.79 406.22 364.55 406.39
  Q 361.37 408.71 358.79 411.29
  Q 203.25 566.93 47.87 722.73
  Q 38.86 731.77 34.36 737.46
  Q 11.93 765.81 4.77 801.90
  Q 3.48 808.41 2.27 814.94
  Q 1.26 820.34 1.24 826.17
  Q 1.21 832.46 1.11 838.75
  Q 1.07 840.99 1.75 844.50
  Q 4.47 858.56 5.37 863.03
  Q 10.82 889.84 25.46 912.56
  Q 29.65 919.06 34.79 924.86
  Q 39.36 930.02 45.44 936.06
  Q 80.62 971.02 117.58 1005.90
  C 117.97 1006.28 118.60 1006.27 118.99 1005.88
  Q 163.41 961.66 206.97 917.97
  Z
  M 835.67 588.00
  Q 799.13 558.88 750.56 551.19
  Q 705.67 544.08 663.08 559.46
  Q 640.69 567.55 621.84 582.27
  C 621.48 582.55 621.45 583.07 621.77 583.39
  L 863.82 825.45
  C 864.34 825.97 865.20 825.92 865.65 825.34
  Q 886.58 798.70 894.05 766.55
  Q 896.21 757.29 897.56 746.87
  Q 901.42 717.14 895.25 687.00
  Q 885.03 637.05 850.47 601.42
  Q 843.50 594.23 835.67 588.00
  Z
  M 812.80 852.17
  Q 697.89 737.22 583.16 622.53
  C 582.92 622.30 582.54 622.32 582.34 622.58
  Q 569.10 639.15 561.44 658.36
  Q 545.23 699.02 549.74 742.75
  Q 553.53 779.38 570.56 810.19
  Q 600.73 864.73 658.58 887.13
  Q 667.96 890.76 677.62 893.25
  Q 711.92 902.11 747.50 897.71
  Q 771.30 894.77 793.29 885.26
  Q 810.39 877.87 825.01 865.67
  C 825.34 865.39 825.38 864.89 825.09 864.56
  Q 821.76 860.74 818.45 857.58
  Q 812.83 852.21 812.80 852.17
  Z
  M 260.6657 941.2651
  C 260.35 940.95 259.85 940.95 259.5343 941.2651
  L 156.7351 1044.0643
  C 156.42 1044.38 156.42 1044.88 156.7351 1045.1957
  L 402.2143 1290.6749
  C 402.53 1290.99 403.03 1290.99 403.3457 1290.6749
  L 506.1449 1187.8757
  C 506.46 1187.56 506.46 1187.06 506.1449 1186.7443
  L 260.6657 941.2651
  Z"
/>
<path fill="#00e489" d="
  M 1115.46 1010.46
  Q 1112.40 1013.52 1109.28 1016.53
  Q 1096.51 1028.80 1084.95 1042.18
  C 1084.79 1042.37 1084.50 1042.37 1084.32 1042.20
  L 904.68 862.43
  C 904.23 861.98 904.18 861.27 904.55 860.76
  Q 965.41 778.15 946.00 676.75
  Q 937.02 629.82 908.28 590.71
  Q 870.25 538.94 812.44 514.56
  Q 775.27 498.89 733.49 497.20
  Q 723.55 496.80 713.50 497.37
  Q 643.31 501.36 586.76 543.63
  C 586.27 544.00 585.57 543.95 585.14 543.51
  L 406.60 365.10
  C 406.41 364.91 406.41 364.59 406.60 364.39
  Q 426.41 343.94 464.81 305.56
  Q 591.99 178.49 718.97 51.21
  Q 732.45 37.69 748.27 27.00
  Q 778.54 6.55 815.06 3.31
  Q 816.78 3.16 819.39 1.58
  C 819.67 1.40 819.99 1.31 820.31 1.31
  Q 827.21 1.24 834.11 1.24
  Q 841.49 1.23 847.81 2.30
  Q 865.62 5.32 882.80 10.98
  Q 906.85 18.91 923.31 33.44
  Q 933.99 42.86 954.75 64.50
  Q 979.91 90.72 1004.58 116.95
  C 1004.95 117.33 1004.94 117.94 1004.56 118.32
  L 867.41 255.21
  C 867.22 255.40 867.22 255.72 867.41 255.92
  Q 906.91 295.93 946.83 335.52
  Q 954.47 343.09 960.99 349.64
  Q 1074.67 463.66 1189.09 577.71
  C 1189.28 577.90 1189.60 577.90 1189.79 577.71
  L 1330.15 436.85
  C 1330.34 436.66 1330.66 436.66 1330.85 436.86
  Q 1357.49 464.37 1384.06 491.94
  Q 1404.64 513.29 1420.64 535.16
  Q 1427.26 544.21 1431.31 552.05
  Q 1451.17 590.57 1445.50 633.75
  Q 1438.69 685.59 1402.06 723.31
  Q 1379.33 746.72 1366.40 759.65
  Q 1240.92 885.05 1115.46 1010.46
  Z"
/>
<path fill="#00e489" d="
  M 941.38 260.25
  C 941.03 259.90 941.03 259.34 941.38 258.99
  L 1043.15 157.60
  C 1043.52 157.23 1044.11 157.23 1044.48 157.60
  L 1290.74 403.99
  C 1290.99 404.24 1290.99 404.64 1290.74 404.88
  L 1188.60 506.90
  C 1188.40 507.09 1188.08 507.09 1187.89 506.89
  Q 1090.74 409.53 993.38 312.37
  Q 967.60 286.65 941.38 260.25
  Z"
/>
<path fill="#00e489" d="
  M 206.97 917.97
  Q 163.41 961.66 118.99 1005.88
  C 118.60 1006.27 117.97 1006.28 117.58 1005.90
  Q 80.62 971.02 45.44 936.06
  Q 39.36 930.02 34.79 924.86
  Q 29.65 919.06 25.46 912.56
  Q 10.82 889.84 5.37 863.03
  Q 4.47 858.56 1.75 844.50
  Q 1.07 840.99 1.11 838.75
  Q 1.21 832.46 1.24 826.17
  Q 1.26 820.34 2.27 814.94
  Q 3.48 808.41 4.77 801.90
  Q 11.93 765.81 34.36 737.46
  Q 38.86 731.77 47.87 722.73
  Q 203.25 566.93 358.79 411.29
  Q 361.37 408.71 364.55 406.39
  C 364.79 406.22 365.12 406.24 365.33 406.45
  L 544.25 585.25
  C 544.51 585.51 544.54 585.93 544.31 586.23
  Q 516.38 622.96 504.48 666.87
  Q 501.86 676.51 500.26 686.39
  Q 492.69 733.10 503.94 780.06
  Q 512.97 817.77 534.09 849.17
  Q 555.45 880.94 585.47 904.27
  Q 593.37 910.41 601.85 915.76
  Q 653.61 948.41 715.25 950.75
  Q 749.87 952.07 784.21 942.35
  Q 826.74 930.32 862.15 903.74
  C 862.39 903.57 862.71 903.59 862.92 903.80
  L 1041.63 1082.51
  C 1041.93 1082.80 1041.93 1083.28 1041.64 1083.58
  Q 1024.73 1101.11 1008.15 1117.65
  Q 868.38 1257.00 729.06 1396.81
  Q 717.13 1408.79 700.86 1420.13
  Q 670.29 1441.46 633.00 1444.50
  Q 631.33 1444.64 628.61 1446.41
  C 628.33 1446.59 628.01 1446.69 627.68 1446.69
  Q 620.37 1446.76 613.05 1446.76
  Q 604.72 1446.77 598.48 1445.87
  Q 562.44 1440.66 532.94 1419.81
  Q 511.44 1404.62 491.74 1384.26
  Q 465.51 1357.16 438.67 1330.67
  C 438.47 1330.47 438.47 1330.15 438.67 1329.95
  Q 449.92 1318.42 471.06 1297.56
  Q 524.29 1245.04 578.13 1192.00
  C 578.48 1191.66 578.48 1191.10 578.13 1190.76
  L 256.36 868.98
  C 256.15 868.78 255.83 868.78 255.63 868.99
  Q 231.05 893.81 206.97 917.97
  Z"
/>
<path fill="#00e489" d="
  M 850.47 601.42
  Q 885.03 637.05 895.25 687.00
  Q 901.42 717.14 897.56 746.87
  Q 896.21 757.29 894.05 766.55
  Q 886.58 798.70 865.65 825.34
  C 865.20 825.92 864.34 825.97 863.82 825.45
  L 621.77 583.39
  C 621.45 583.07 621.48 582.55 621.84 582.27
  Q 640.69 567.55 663.08 559.46
  Q 705.67 544.08 750.56 551.19
  Q 799.13 558.88 835.67 588.00
  Q 843.50 594.23 850.47 601.42
  Z"
/>
<path fill="#00e489" d="
  M 818.45 857.58
  Q 821.76 860.74 825.09 864.56
  C 825.38 864.89 825.34 865.39 825.01 865.67
  Q 810.39 877.87 793.29 885.26
  Q 771.30 894.77 747.50 897.71
  Q 711.92 902.11 677.62 893.25
  Q 667.96 890.76 658.58 887.13
  Q 600.73 864.73 570.56 810.19
  Q 553.53 779.38 549.74 742.75
  Q 545.23 699.02 561.44 658.36
  Q 569.10 639.15 582.34 622.58
  C 582.54 622.32 582.92 622.30 583.16 622.53
  Q 697.89 737.22 812.80 852.17
  Q 812.83 852.21 818.45 857.58
  Z"
/>
<rect fill="#00e489" x="-73.49" y="-174.38" transform="translate(331.44,1115.97) rotate(-45.0)" width="146.98" height="348.76" rx="0.80"/>
</svg>
