<?xml version="1.0" encoding="UTF-8"?>
<svg id="Camada_1" data-name="Camada 1" xmlns="http://www.w3.org/2000/svg" viewBox="0 0 525.14 525.1">
  <defs>
    <style>
      .cls-1 {
        fill-rule: evenodd;
      }
    </style>
  </defs>
  <path class="cls-1" d="m0,297.42c.73-3.48,1.29-7,2.2-10.43,2.5-9.46,7.37-17.62,14.26-24.51,38.16-38.2,76.37-76.37,114.56-114.55.47-.47,1.04-.85,1.07-.89,21.71,21.71,43.28,43.28,65.25,65.25-14.55,19.27-20.31,41.83-15.66,66.65,3.41,18.22,12.53,33.36,26.38,45.73,26.24,23.43,69.99,29.42,104.87,3.11,21.64,21.64,43.23,43.22,65.22,65.22-.66.69-1.88,2.01-3.16,3.3-36.35,36.38-72.77,72.7-109.06,109.16-10.18,10.24-21.55,17.79-36.4,18.85-.63.04-1.23.52-1.83.79h-8.21c-28.03-2.52-41.95-25.08-60.79-42.28,17.62-17.38,34.83-34.35,51.15-50.45-39.27-39.26-78.07-78.05-117.32-117.31-16.41,16.43-33.39,33.43-50.06,50.12-9.6-9.26-19.35-18.3-28.63-27.79-6.45-6.59-10.22-14.85-12.25-23.84-.59-2.63-1.06-5.29-1.59-7.93v-8.2h0Z"/>
  <path class="cls-1" d="m305.64,0c2.48.48,4.97.89,7.43,1.44,8.81,1.99,17.09,5.45,23.57,11.75,9.68,9.4,18.79,19.36,28.09,29.02-16.52,16.49-33.62,33.56-50.28,50.18,39.63,39.62,78.38,78.37,117.23,117.22,16.36-16.45,33.4-33.58,51.25-51.54,11.56,12.44,23.52,23.17,32.81,35.84,14.34,19.54,11.76,47.14-4.18,65.52-1.9,2.19-3.93,4.28-5.99,6.33-36.25,36.27-72.52,72.53-108.76,108.8-1.32,1.33-2.43,2.86-3.13,3.68-22.05-22.04-43.6-43.6-65.68-65.67,14.58-19.39,20.33-42.43,15.16-67.77-3.72-18.2-13.07-33.23-27.14-45.31-26.7-22.9-69.68-27.91-103.64-2.29-21.65-21.63-43.23-43.2-65.24-65.2.5-.53,1.71-1.86,2.98-3.14,36.61-36.63,73.26-73.22,109.8-109.93,9.96-10,21.25-17.07,35.67-18.16.63-.05,1.24-.51,1.86-.78h8.2,0Z"/>
  <path class="cls-1" d="m468.6,146.45c-12.17,12.17-24.84,24.84-37.31,37.32-29.91-29.91-59.97-59.98-89.94-89.94,12.48-12.43,25.16-25.07,37.44-37.29,29.74,29.78,59.74,59.81,89.81,89.91Z"/>
  <path class="cls-1" d="m225.29,211.24c23.63-19.1,62.47-15.44,83.96,7.48,22.67,24.2,20.92,61.63,4.48,80.95-29.42-29.41-58.84-58.84-88.44-88.43h0Z"/>
  <path class="cls-1" d="m211.24,225.55c29.41,29.4,58.84,58.82,88.25,88.22-18.08,16.04-56.35,18.63-81.02-4.76-24.78-23.49-24.64-62.34-7.23-83.46h0Z"/>
  <path class="cls-1" d="m94.06,341.35c29.91,29.94,59.84,59.89,89.5,89.58-12.57,12.55-25.32,25.27-37.72,37.66-29.64-29.64-59.67-59.67-89.56-89.57,12.35-12.33,25.03-24.97,37.79-37.67h0Z"/>
</svg>