<?xml version="1.0" encoding="UTF-8" standalone="no"?>
<!DOCTYPE svg PUBLIC "-//W3C//DTD SVG 1.1//EN" "http://www.w3.org/Graphics/SVG/1.1/DTD/svg11.dtd">
<svg xmlns="http://www.w3.org/2000/svg" version="1.1" viewBox="0 0 1448 1448">
<path fill="#00e489" d="
  M 918.48 876.37
  Q 911.31 869.35 904.41 862.05
  C 904.21 861.84 904.19 861.52 904.36 861.29
  Q 966.41 777.03 945.43 674.51
  Q 943.32 664.23 940.54 655.13
  Q 925.27 605.15 888.06 566.69
  Q 858.84 536.48 822.06 518.92
  Q 813.22 514.70 803.62 511.18
  Q 750.02 491.49 694.31 499.06
  Q 635.38 507.08 586.40 543.95
  C 586.17 544.12 585.85 544.10 585.65 543.90
  L 406.55 365.05
  C 406.28 364.78 406.28 364.34 406.55 364.07
  Q 565.13 205.00 724.06 46.31
  Q 737.09 33.31 757.41 21.49
  Q 783.56 6.28 813.76 3.63
  Q 816.23 3.41 818.22 2.12
  Q 819.57 1.25 821.18 1.25
  Q 828.18 1.25 835.14 1.25
  Q 841.84 1.25 847.76 2.31
  Q 857.93 4.13 867.99 6.56
  Q 880.34 9.55 892.07 14.41
  Q 914.67 23.78 931.81 41.19
  Q 968.15 78.11 1004.72 116.91
  C 1005.05 117.27 1005.05 117.82 1004.70 118.17
  L 867.69 254.94
  C 867.31 255.32 867.30 255.93 867.68 256.31
  L 1188.68 577.43
  C 1189.07 577.82 1189.69 577.82 1190.07 577.43
  L 1330.01 436.74
  C 1330.21 436.54 1330.54 436.54 1330.74 436.74
  Q 1357.58 464.54 1384.50 492.25
  Q 1399.33 507.52 1416.03 528.49
  Q 1443.41 562.90 1446.39 606.25
  Q 1447.05 615.90 1446.23 626.24
  Q 1441.66 683.85 1401.06 724.56
  Q 1249.47 876.59 1097.48 1028.23
  Q 1090.75 1034.94 1085.37 1042.01
  C 1085.09 1042.38 1084.54 1042.42 1084.21 1042.09
  Q 1007.77 965.78 932.74 890.40
  Q 931.05 888.70 918.48 876.37
  Z"
/>
<rect fill="#00e489" x="-72.83" y="-175.05" transform="translate(1115.97,332.10) rotate(-45.0)" width="145.66" height="350.10" rx="0.58"/>
<path fill="#00e489" d="
  M 212.92 911.92
  Q 166.41 958.66 118.93 1005.94
  C 118.57 1006.30 118.00 1006.31 117.63 1005.96
  Q 84.22 974.51 52.27 942.86
  Q 39.86 930.55 38.16 928.70
  Q 14.81 903.30 6.75 868.50
  Q 4.00 856.64 2.30 847.75
  Q 1.25 842.29 1.25 836.14
  Q 1.25 829.94 1.25 823.75
  Q 1.25 819.92 1.60 817.97
  Q 3.57 806.88 6.24 795.94
  Q 8.96 784.78 12.01 776.80
  Q 20.94 753.36 37.07 734.19
  Q 41.06 729.45 50.82 719.67
  Q 207.18 563.11 363.65 406.72
  C 364.19 406.18 365.06 406.18 365.60 406.72
  L 544.09 585.34
  C 544.30 585.55 544.33 585.87 544.18 586.12
  Q 542.91 588.22 541.46 590.20
  Q 496.71 651.18 497.23 726.50
  Q 497.30 736.53 498.22 746.47
  Q 505.22 822.21 557.14 878.35
  Q 599.61 924.27 659.25 941.75
  Q 685.76 949.52 714.00 950.76
  Q 723.90 951.20 733.99 950.64
  Q 805.12 946.68 862.32 903.56
  C 862.44 903.47 862.61 903.48 862.71 903.58
  L 1041.84 1082.83
  C 1042.03 1083.03 1042.03 1083.34 1041.84 1083.53
  Q 892.47 1233.22 743.02 1382.85
  Q 742.96 1382.91 735.92 1390.08
  Q 723.10 1403.13 709.56 1413.81
  Q 701.09 1420.50 690.59 1426.62
  Q 663.70 1442.30 632.56 1444.56
  Q 631.56 1444.64 628.62 1446.42
  C 628.33 1446.60 628.01 1446.69 627.68 1446.69
  Q 620.62 1446.76 613.55 1446.76
  Q 605.29 1446.77 599.49 1446.02
  Q 577.76 1443.23 557.77 1433.95
  Q 537.05 1424.32 518.31 1408.69
  Q 507.66 1399.80 501.83 1394.17
  Q 485.35 1378.28 469.54 1361.71
  Q 454.77 1346.23 438.69 1330.97
  C 438.32 1330.63 438.32 1330.04 438.68 1329.69
  L 578.18 1191.96
  C 578.50 1191.64 578.50 1191.12 578.19 1190.81
  L 256.56 869.18
  C 256.32 868.94 255.93 868.94 255.69 869.18
  Q 234.30 890.43 212.92 911.92
  Z"
/>
<path fill="#00e489" d="
  M 864.58 825.95
  L 621.78 583.28
  C 621.48 582.98 621.51 582.48 621.85 582.22
  Q 660.26 552.87 708.49 549.41
  Q 753.39 546.19 794.74 563.51
  Q 832.69 579.41 859.19 610.81
  Q 885.26 641.71 894.57 683.84
  Q 904.97 730.90 891.07 776.95
  Q 882.96 803.81 865.26 825.91
  C 865.09 826.12 864.77 826.14 864.58 825.95
  Z"
/>
<path fill="#00e489" d="
  M 825.26 864.63
  C 825.50 864.88 825.48 865.28 825.21 865.50
  Q 821.90 868.23 818.74 870.68
  Q 815.33 873.32 811.93 875.41
  Q 782.58 893.55 747.50 897.75
  Q 699.32 903.52 655.49 885.90
  Q 646.22 882.18 637.45 877.30
  Q 585.38 848.35 562.42 793.26
  Q 558.54 783.95 555.82 774.40
  Q 546.95 743.34 549.19 710.75
  Q 551.18 681.73 563.00 654.50
  Q 570.67 636.84 582.43 622.63
  C 582.61 622.41 582.92 622.38 583.14 622.56
  Q 584.59 623.72 587.06 626.19
  Q 706.08 745.04 825.26 864.63
  Z"
/>
<rect fill="#00e489" x="-73.55" y="-174.41" transform="translate(331.43,1116.00) rotate(-45.0)" width="147.10" height="348.82" rx="0.86"/>
</svg>
